<svg viewBox="0 0 1680 1000" xmlns="http://www.w3.org/2000/svg" preserveAspectRatio="xMidYMid slice">
  <defs>
    <linearGradient id="base" x1="0" y1="0" x2="0" y2="1">
      <stop offset="0%" stop-color="#f7f8fb"/>
      <stop offset="55%" stop-color="#eef1f7"/>
      <stop offset="100%" stop-color="#e6eaf3"/>
    </linearGradient>
    <linearGradient id="beam" x1="0" y1="0" x2="1" y2="1">
      <stop offset="0%" stop-color="#ffffff" stop-opacity="0.95"/>
      <stop offset="45%" stop-color="#ffffff" stop-opacity="0.15"/>
      <stop offset="100%" stop-color="#ffffff" stop-opacity="0"/>
    </linearGradient>
    <linearGradient id="gold" x1="0" y1="0" x2="1" y2="0">
      <stop offset="0%" stop-color="#e7c98a" stop-opacity="0"/>
      <stop offset="35%" stop-color="#e7c98a" stop-opacity="0.9"/>
      <stop offset="65%" stop-color="#d9b876" stop-opacity="0.9"/>
      <stop offset="100%" stop-color="#e7c98a" stop-opacity="0"/>
    </linearGradient>
    <linearGradient id="waveA" x1="0" y1="0" x2="0" y2="1">
      <stop offset="0%" stop-color="#ffffff" stop-opacity="0.9"/>
      <stop offset="100%" stop-color="#dfe4ee" stop-opacity="0.4"/>
    </linearGradient>
    <linearGradient id="waveB" x1="0" y1="0" x2="0" y2="1">
      <stop offset="0%" stop-color="#c9d2e6" stop-opacity="0.55"/>
      <stop offset="100%" stop-color="#c3cee6" stop-opacity="0.25"/>
    </linearGradient>
    <linearGradient id="marble" x1="0" y1="0" x2="0" y2="1">
      <stop offset="0%" stop-color="#f2f4f8" stop-opacity="0"/>
      <stop offset="100%" stop-color="#eceef4" stop-opacity="0.9"/>
    </linearGradient>
  </defs>

  <rect width="1680" height="1000" fill="url(#base)"/>

  <polygon points="0,0 260,0 40,420 0,340" fill="url(#beam)" opacity="0.7"/>
  <polygon points="120,0 420,0 220,520 90,460" fill="url(#beam)" opacity="0.35"/>

  <g opacity="0.5" stroke="#c7d0e2" stroke-width="1" fill="none">
    <path d="M1180 -20 C1300 120 1260 260 1380 340 C1480 400 1520 300 1600 260"/>
    <path d="M1220 20 C1330 150 1300 280 1410 360 C1500 420 1540 330 1610 300"/>
    <path d="M1260 60 C1360 180 1340 300 1440 380 C1520 440 1555 360 1620 335"/>
    <path d="M1300 100 C1390 210 1375 320 1470 400 C1540 455 1570 385 1630 365"/>
    <path d="M1340 140 C1420 240 1410 340 1500 415 C1560 465 1585 405 1640 390"/>
    <path d="M1380 180 C1450 270 1445 360 1530 430 C1580 470 1600 420 1650 410"/>
  </g>

  <path d="M1560 40 C1500 220 1620 300 1580 480 C1550 620 1480 700 1610 900" fill="none" stroke="url(#gold)" stroke-width="2.5" opacity="0.85"/>

  <g opacity="0.9">
    <circle cx="1590" cy="640" r="2" fill="#e0c98f"/>
    <circle cx="1610" cy="670" r="1.4" fill="#e0c98f"/>
    <circle cx="1560" cy="690" r="1.2" fill="#cdd6e8"/>
    <circle cx="1625" cy="705" r="2" fill="#e0c98f"/>
    <circle cx="1600" cy="730" r="1.5" fill="#cdd6e8"/>
    <circle cx="1645" cy="655" r="1.3" fill="#e0c98f"/>
    <circle cx="1575" cy="715" r="1.6" fill="#cdd6e8"/>
    <circle cx="1635" cy="740" r="1.2" fill="#e0c98f"/>
  </g>

  <path d="M0 660 C260 700 420 600 700 640 C980 680 1160 560 1420 610 C1560 635 1620 660 1680 650 L1680 1000 L0 1000 Z" fill="url(#waveA)"/>
  <path d="M0 660 C260 700 420 600 700 640 C980 680 1160 560 1420 610 C1560 635 1620 660 1680 650" fill="none" stroke="url(#gold)" stroke-width="2.5" opacity="0.9"/>

  <path d="M0 760 C300 820 520 730 820 770 C1080 805 1280 720 1680 760 L1680 1000 L0 1000 Z" fill="url(#waveB)"/>

  <rect x="0" y="840" width="1680" height="160" fill="url(#marble)"/>
  <g opacity="0.18" stroke="#aab4cc" stroke-width="1" fill="none">
    <path d="M0 900 C200 880 260 930 460 900 C660 870 760 940 980 905 C1180 875 1320 930 1520 900 C1600 888 1650 900 1680 895"/>
    <path d="M0 940 C220 915 300 965 520 935 C740 905 860 960 1080 930 C1300 900 1420 950 1680 925"/>
  </g>
</svg>
